<svg xmlns="http://www.w3.org/2000/svg" width="1800" height="7050" viewBox="0 0 1800 7050" role="img" aria-labelledby="title desc">
<title id="title">Kinward Batch One representative interaction states</title>
<desc id="desc">Static visual evidence for loading, error, neutral denial, focus, and confirmation states across Screens 2, 4, 6, 7, 8, 9, and 10. Verified Batch One evidence; Milestone One coding authorized (D-18); non-medical foundation only; no runtime conformance claimed by this static board.</desc>
<defs><style>
text{font-family:-apple-system,BlinkMacSystemFont,"Segoe UI",Roboto,Arial,sans-serif;fill:#20312A}.bg{fill:#ECEFEA}.panel{fill:#F7F6F2;stroke:#20312A;stroke-width:4}.decor{fill:#FFF;stroke:#C9D2CD;stroke-width:2}.control{fill:#FFF;stroke:#4C5F56;stroke-width:2}.primary{fill:#17634D}.ctx{fill:#DCECE6}.info{fill:#E2F0F8}.warn{fill:#FFF1C7}.error{fill:#FBE7E5}.neutral{fill:#E9EEF0}.danger{fill:#FFF;stroke:#A33A3A;stroke-width:2}.focus{fill:none;stroke:#7047B6;stroke-width:3}.sep{fill:none;stroke:#FFF;stroke-width:2}.h1{font-size:28px;font-weight:700}.h2{font-size:22px;font-weight:700}.body{font-size:18px}.support{font-size:16px;fill:#4C5F56}.label{font-size:16px;font-weight:700}.white{fill:#FFF}.red{fill:#A33A3A}.blue{fill:#155E8A}.cap{font-size:16px;font-weight:700}.title{font-size:44px;font-weight:700}.sub{font-size:22px;fill:#4C5F56}.skeleton{fill:#D8DEDA}
</style></defs>
<rect class="bg" width="1800" height="7050"/>
<text class="title" x="60" y="68">Kinward  -  Batch 01 state evidence</text>
<text class="sub" x="60" y="108">Loading  -  error  -  neutral denial by screen; confirmations below  -  static design evidence only</text>

<!-- Screen 2 -->
<g transform="translate(55 170)"><text class="cap" y="-14">SCREEN 2  -  LOADING</text><rect class="panel" rx="24" width="520" height="760"/><text class="h1" x="24" y="64">Verify your email</text><rect class="neutral" x="24" y="95" rx="14" width="472" height="88"/><text class="h2" x="46" y="132">  Checking verification...</text><text class="support" x="46" y="161">The screen stays in place.</text><text class="label" x="24" y="230">Verification code</text><rect class="control" x="24" y="248" rx="12" width="472" height="60"/><text class="body" x="44" y="285">123 456</text><rect class="control" x="24" y="350" rx="12" width="472" height="58" stroke-dasharray="8 6"/><text class="label" x="190" y="386">Checking...</text><text class="body" x="24" y="465">Repeat submission is unavailable.</text><text class="support" x="24" y="500">No Circle or invitation details appear.</text><rect class="skeleton" x="24" y="545" rx="8" width="350" height="18"/><rect class="skeleton" x="24" y="580" rx="8" width="430" height="18"/></g>
<g transform="translate(640 170)"><text class="cap" y="-14">SCREEN 2  -  ERROR + SUMMARY FOCUS</text><rect class="panel" rx="24" width="520" height="760"/><text class="h1" x="24" y="64">Verify your email</text><rect class="focus" x="19" y="88" rx="19" width="482" height="142"/><rect class="sep" x="23" y="92" rx="17" width="474" height="134"/><rect class="error" x="26" y="95" rx="14" width="468" height="128"/><text class="h2 red" x="48" y="134">  Check the code</text><text class="body red" x="48" y="170">The code is invalid or expired.</text><text class="support" x="48" y="201">Request a new code and try again.</text><text class="label" x="24" y="280">Verification code</text><rect x="24" y="298" rx="12" width="472" height="60" fill="#FFF" stroke="#A33A3A" stroke-width="3"/><text class="body" x="44" y="335">123 456</text><text class="body red" x="24" y="395">  Enter the newest code from your email.</text><rect class="primary" x="24" y="445" rx="12" width="472" height="58"/><text class="label white" x="210" y="481">Try again</text><rect class="control" x="24" y="525" rx="12" width="472" height="58"/><text class="label blue" x="200" y="561">Resend code</text><text class="support" x="24" y="630">Input and persistent label are retained.</text></g>
<g transform="translate(1225 170)"><text class="cap" y="-14">SCREEN 2  -  NEUTRAL DENIAL</text><rect class="panel" rx="24" width="520" height="760"/><rect class="neutral" x="24" y="72" rx="18" width="472" height="330"/><text class="h2" x="48" y="120">  This verification link</text><text class="h2" x="48" y="151">is unavailable</text><text class="body" x="48" y="205">Use the sign-in screen to request</text><text class="body" x="48" y="235">a new verification message.</text><text class="support" x="48" y="286">No Circle, invitation, account, or</text><text class="support" x="48" y="312">recipient information is shown.</text><rect class="primary" x="48" y="332" rx="12" width="424" height="56"/><text class="label white" x="195" y="367">Return to sign in</text><text class="support" x="24" y="480">Neutral wording does not confirm why</text><text class="support" x="24" y="506">the link is unavailable.</text></g>

<!-- Screen 4 -->
<g transform="translate(55 1010)"><text class="cap" y="-14">SCREEN 4  -  SUBMISSION LOADING</text><rect class="panel" rx="24" width="520" height="760"/><rect class="neutral" x="20" y="20" rx="14" width="480" height="58"/><text class="label" x="40" y="56">New Circle  -  Not created</text><text class="h1" x="24" y="130">Create a Family Circle</text><text class="label" x="24" y="180">Circle name</text><rect class="control" x="24" y="198" rx="12" width="472" height="60"/><text class="body" x="44" y="235">Harbor Circle</text><rect class="neutral" x="24" y="300" rx="14" width="472" height="90"/><text class="h2" x="46" y="340">  Creating Circle...</text><text class="support" x="46" y="370">Entered information stays visible.</text><rect class="control" x="24" y="430" rx="12" width="472" height="58" stroke-dasharray="8 6"/><text class="label" x="190" y="466">Creating...</text><text class="body" x="24" y="540">Repeat submission is unavailable.</text><text class="support" x="24" y="575">No Circle exists until creation succeeds.</text></g>
<g transform="translate(640 1010)"><text class="cap" y="-14">SCREEN 4  -  ERROR</text><rect class="panel" rx="24" width="520" height="760"/><text class="h1" x="24" y="64">Create a Family Circle</text><rect class="focus" x="19" y="88" rx="19" width="482" height="142"/><rect class="sep" x="23" y="92" rx="17" width="474" height="134"/><rect class="error" x="26" y="95" rx="14" width="468" height="128"/><text class="h2 red" x="48" y="134">  Check the highlighted field</text><text class="body red" x="48" y="170">Circle name  -  use 2+60 characters.</text><text class="support" x="48" y="201">Your entry is still here.</text><text class="label" x="24" y="280">Circle name</text><rect x="24" y="298" rx="12" width="472" height="60" fill="#FFF" stroke="#A33A3A" stroke-width="3"/><text class="body" x="44" y="335">H</text><text class="body red" x="24" y="395">  Enter at least 2 characters.</text><rect class="primary" x="24" y="445" rx="12" width="472" height="58"/><text class="label white" x="200" y="481">Create Circle</text><text class="support" x="24" y="545">A safe retry cannot create a duplicate.</text></g>
<g transform="translate(1225 1010)"><text class="cap" y="-14">SCREEN 4  -  NEUTRAL DENIAL</text><rect class="panel" rx="24" width="520" height="760"/><rect class="neutral" x="24" y="72" rx="18" width="472" height="310"/><text class="h2" x="48" y="120">  This action is unavailable</text><text class="body" x="48" y="175">Sign in again to continue.</text><text class="support" x="48" y="220">No other account or Circle information</text><text class="support" x="48" y="246">is shown.</text><rect class="primary" x="48" y="300" rx="12" width="424" height="56"/><text class="label white" x="202" y="335">Return to sign in</text><text class="support" x="24" y="455">The unsubmitted Circle was not created.</text></g>

<!-- Screen 6 -->
<g transform="translate(55 1850)"><text class="cap" y="-14">SCREEN 6  -  AUTHORIZED OPTIONS LOADING</text><rect class="panel" rx="24" width="520" height="760"/><rect class="ctx" x="20" y="20" rx="14" width="480" height="62"/><text class="label" x="40" y="58">Circle  -  Harbor Circle</text><text class="h1" x="24" y="135">Invite an adult</text><text class="label" x="24" y="185">Invitation recipient  -  verified email</text><rect class="control" x="24" y="202" rx="12" width="472" height="60"/><text class="body" x="44" y="239">jordan@example.test</text><rect class="neutral" x="24" y="300" rx="14" width="472" height="122"/><text class="h2" x="46" y="340">  Checking permitted roles...</text><text class="body" x="46" y="376">Only authorized choices will appear.</text><text class="support" x="46" y="405">No recipient names are loaded yet.</text><rect class="control" x="24" y="462" rx="12" width="472" height="58" stroke-dasharray="8 6"/><text class="label" x="168" y="498">Review unavailable while loading</text><text class="support" x="24" y="575">Repeat submission is prevented.</text></g>
<g transform="translate(640 1850)"><text class="cap" y="-14">SCREEN 6  -  FORM ERROR + CONTROL FOCUS</text><rect class="panel" rx="24" width="520" height="760"/><text class="h1" x="24" y="64">Invite an adult</text><rect class="error" x="24" y="92" rx="14" width="472" height="112"/><text class="h2 red" x="46" y="132">  Check the highlighted field</text><text class="body red" x="46" y="170">Enter a valid verified email.</text><text class="label" x="24" y="250">Invitation recipient  -  verified email</text><rect class="focus" x="19" y="266" rx="17" width="482" height="70"/><rect class="sep" x="23" y="270" rx="15" width="474" height="62"/><rect x="26" y="273" rx="12" width="468" height="56" fill="#FFF" stroke="#A33A3A" stroke-width="3"/><text class="body" x="44" y="309">jordan.example.test</text><text class="body red" x="24" y="375">  Include @ and a valid domain.</text><text class="support" x="24" y="420">Input is retained. No account existence</text><text class="support" x="24" y="446">or delivery detail is revealed.</text><rect class="primary" x="24" y="500" rx="12" width="472" height="58"/><text class="label white" x="184" y="536">Review invitation</text></g>
<g transform="translate(1225 1850)"><text class="cap" y="-14">SCREEN 6  -  NEUTRAL DENIAL</text><rect class="panel" rx="24" width="520" height="760"/><rect class="neutral" x="24" y="72" rx="18" width="472" height="340"/><text class="h2" x="48" y="120">  This action is unavailable</text><text class="body" x="48" y="175">You cannot open this invitation</text><text class="body" x="48" y="205">setup from this account.</text><text class="support" x="48" y="252">No Circle, recipient, role, member,</text><text class="support" x="48" y="278">or pending-invitation details appear.</text><rect class="primary" x="48" y="330" rx="12" width="424" height="56"/><text class="label white" x="187" y="365">Return to My Kinward</text><text class="support" x="24" y="480">The state does not confirm a protected</text><text class="support" x="24" y="506">invitation setup exists.</text></g>

<!-- Screen 7 -->
<g transform="translate(55 2690)"><text class="cap" y="-14">SCREEN 7  -  STATUS LOADING</text><rect class="panel" rx="24" width="520" height="760"/><rect class="ctx" x="20" y="20" rx="14" width="480" height="62"/><text class="label" x="40" y="58">Circle  -  Harbor Circle</text><text class="h1" x="24" y="135">Invitation pending</text><rect class="neutral" x="24" y="170" rx="14" width="472" height="122"/><text class="h2" x="46" y="212">  Loading invitation status...</text><text class="body" x="46" y="250">No hidden recipient labels appear.</text><rect class="skeleton" x="24" y="335" rx="8" width="280" height="18"/><rect class="skeleton" x="24" y="374" rx="8" width="430" height="18"/><rect class="skeleton" x="24" y="413" rx="8" width="360" height="18"/><rect class="control" x="24" y="475" rx="12" width="472" height="58" stroke-dasharray="8 6"/><text class="label" x="194" y="511">Actions unavailable</text><text class="support" x="24" y="585">Stable context remains visible because this</text><text class="support" x="24" y="611">viewer is authorized to know the Circle.</text></g>
<g transform="translate(640 2690)"><text class="cap" y="-14">SCREEN 7  -  NON-LEAKING ERROR</text><rect class="panel" rx="24" width="520" height="760"/><rect class="ctx" x="20" y="20" rx="14" width="480" height="62"/><text class="label" x="40" y="58">Circle  -  Harbor Circle</text><text class="h1" x="24" y="135">Invitation pending</text><rect class="focus" x="19" y="162" rx="19" width="482" height="156"/><rect class="sep" x="23" y="166" rx="17" width="474" height="148"/><rect class="error" x="26" y="169" rx="14" width="468" height="142"/><text class="h2 red" x="48" y="210">  Invitation not updated</text><text class="body red" x="48" y="247">Try again. No access has changed.</text><text class="support" x="48" y="280">Protected reasons are not shown.</text><rect class="primary" x="24" y="365" rx="12" width="472" height="58"/><text class="label white" x="215" y="401">Try again</text><rect class="control" x="24" y="445" rx="12" width="472" height="58"/><text class="label" x="194" y="481">Back to members</text><text class="support" x="24" y="555">No account existence, delivery detail,</text><text class="support" x="24" y="581">or hidden recipient is exposed.</text></g>
<g transform="translate(1225 2690)"><text class="cap" y="-14">SCREEN 7  -  NEUTRAL DENIAL</text><rect class="panel" rx="24" width="520" height="760"/><rect class="neutral" x="24" y="72" rx="18" width="472" height="340"/><text class="h2" x="48" y="120">  This invitation is unavailable</text><text class="body" x="48" y="175">Return to a Circle you can access.</text><text class="support" x="48" y="225">No email, Circle, role, dates, state,</text><text class="support" x="48" y="251">outcome, or protected reason appears.</text><rect class="primary" x="48" y="330" rx="12" width="424" height="56"/><text class="label white" x="187" y="365">Return to My Kinward</text><text class="support" x="24" y="480">The wording does not confirm that an</text><text class="support" x="24" y="506">invitation exists.</text></g>

<!-- Screen 8 -->
<g transform="translate(55 3530)"><text class="cap" y="-14">SCREEN 8  -  ELIGIBILITY LOADING</text><rect class="panel" rx="24" width="520" height="760"/><rect class="ctx" x="20" y="20" rx="14" width="480" height="62"/><text class="label" x="40" y="58">Harbor Circle  -  Circle-wide</text><text class="h1" x="24" y="135">Add a Care Recipient</text><rect class="neutral" x="24" y="170" rx="14" width="472" height="130"/><text class="h2" x="46" y="212">  Checking proposal eligibility...</text><text class="body" x="46" y="250">No existing recipient details appear.</text><text class="support" x="46" y="280">The pending shell is not created yet.</text><rect class="control" x="24" y="350" rx="12" width="472" height="58" stroke-dasharray="8 6"/><text class="label" x="168" y="386">Send unavailable while loading</text><text class="support" x="24" y="470">Context is preserved only for the authorized</text><text class="support" x="24" y="496">Circle-wide viewer.</text></g>
<g transform="translate(640 3530)"><text class="cap" y="-14">SCREEN 8  -  ERROR</text><rect class="panel" rx="24" width="520" height="760"/><text class="h1" x="24" y="64">Add a Care Recipient</text><rect class="focus" x="19" y="88" rx="19" width="482" height="142"/><rect class="sep" x="23" y="92" rx="17" width="474" height="134"/><rect class="error" x="26" y="95" rx="14" width="468" height="128"/><text class="h2 red" x="48" y="134">  Check the proposal</text><text class="body red" x="48" y="170">Enter a valid verified email.</text><text class="support" x="48" y="201">No private record was created.</text><text class="label" x="24" y="280">Owner verified email</text><rect x="24" y="298" rx="12" width="472" height="60" fill="#FFF" stroke="#A33A3A" stroke-width="3"/><text class="body" x="44" y="335">riley.example.test</text><text class="body red" x="24" y="395">  Include @ and a valid domain.</text><rect class="primary" x="24" y="445" rx="12" width="472" height="70"/><text class="label white" x="161" y="487">Send ownership invitation</text><text class="support" x="24" y="575">Safe input is retained; no account match</text><text class="support" x="24" y="601">or recipient existence is disclosed.</text></g>
<g transform="translate(1225 3530)"><text class="cap" y="-14">SCREEN 8  -  NEUTRAL DENIAL</text><rect class="panel" rx="24" width="520" height="760"/><rect class="neutral" x="24" y="72" rx="18" width="472" height="340"/><text class="h2" x="48" y="120">  This action is unavailable</text><text class="body" x="48" y="175">You cannot open this proposal</text><text class="body" x="48" y="205">from this account.</text><text class="support" x="48" y="252">No proposed owner, Care Recipient,</text><text class="support" x="48" y="278">Circle, count, or reason appears.</text><rect class="primary" x="48" y="330" rx="12" width="424" height="56"/><text class="label white" x="187" y="365">Return to My Kinward</text></g>

<!-- Screen 9 -->
<g transform="translate(55 4370)"><text class="cap" y="-14">SCREEN 9  -  IDENTITY-FIRST LOADING</text><rect class="panel" rx="24" width="520" height="760"/><text class="h1" x="24" y="70">Ownership invitation</text><rect class="neutral" x="24" y="105" rx="18" width="472" height="230"/><text class="h2" x="48" y="155">  Checking invitation...</text><text class="body" x="48" y="205">Confirming the matching verified</text><text class="body" x="48" y="235">email before showing details.</text><text class="support" x="48" y="285">No Circle, proposer, pending label,</text><text class="support" x="48" y="311">or private information appears.</text><rect class="skeleton" x="24" y="390" rx="8" width="350" height="18"/><rect class="skeleton" x="24" y="430" rx="8" width="430" height="18"/><rect class="control" x="24" y="500" rx="12" width="472" height="58" stroke-dasharray="8 6"/><text class="label" x="190" y="536">Checking identity...</text></g>
<g transform="translate(640 4370)"><text class="cap" y="-14">SCREEN 9  -  SAFE ERROR</text><rect class="panel" rx="24" width="520" height="760"/><rect class="focus" x="19" y="68" rx="19" width="482" height="230"/><rect class="sep" x="23" y="72" rx="17" width="474" height="222"/><rect class="error" x="26" y="75" rx="14" width="468" height="216"/><text class="h2 red" x="48" y="120">  This ownership invitation</text><text class="h2 red" x="48" y="151">is unavailable</text><text class="body red" x="48" y="205">Return safely or request a new link</text><text class="body red" x="48" y="235">outside this unavailable state.</text><text class="support" x="48" y="270">No protected reason is shown.</text><rect class="primary" x="24" y="350" rx="12" width="472" height="58"/><text class="label white" x="199" y="386">Return safely</text><text class="support" x="24" y="480">Used, expired, cancelled, and mismatched</text><text class="support" x="24" y="506">links use the same non-leaking result.</text></g>
<g transform="translate(1225 4370)"><text class="cap" y="-14">SCREEN 9  -  NEUTRAL DENIAL</text><rect class="panel" rx="24" width="520" height="760"/><rect class="neutral" x="24" y="72" rx="18" width="472" height="340"/><text class="h2" x="48" y="120">  This ownership invitation</text><text class="h2" x="48" y="151">is unavailable</text><text class="body" x="48" y="205">Use the account that received the</text><text class="body" x="48" y="235">invitation or return safely.</text><text class="support" x="48" y="282">No Circle, proposer, pending label,</text><text class="support" x="48" y="308">ownership effect, or reason appears.</text><rect class="primary" x="48" y="335" rx="12" width="424" height="56"/><text class="label white" x="201" y="370">Return safely</text></g>

<!-- Screen 10 -->
<g transform="translate(55 5210)"><text class="cap" y="-14">SCREEN 10  -  STATUS LOADING</text><rect class="panel" rx="24" width="520" height="760"/><rect class="ctx" x="20" y="20" rx="14" width="480" height="62"/><text class="label" x="40" y="58">Harbor Circle  -  Authorized context</text><text class="h1" x="24" y="135">Ownership pending</text><rect class="neutral" x="24" y="170" rx="14" width="472" height="130"/><text class="h2" x="46" y="212">  Loading proposal status...</text><text class="body" x="46" y="250">No private record is queried.</text><text class="support" x="46" y="280">No protected placeholder appears.</text><rect class="skeleton" x="24" y="350" rx="8" width="310" height="18"/><rect class="skeleton" x="24" y="390" rx="8" width="430" height="18"/><rect class="control" x="24" y="465" rx="12" width="472" height="58" stroke-dasharray="8 6"/><text class="label" x="194" y="501">Actions unavailable</text></g>
<g transform="translate(640 5210)"><text class="cap" y="-14">SCREEN 10  -  SAFE ERROR</text><rect class="panel" rx="24" width="520" height="760"/><rect class="ctx" x="20" y="20" rx="14" width="480" height="62"/><text class="label" x="40" y="58">Harbor Circle  -  Pending "Dad"</text><text class="h1" x="24" y="135">Ownership pending</text><rect class="focus" x="19" y="162" rx="19" width="482" height="156"/><rect class="sep" x="23" y="166" rx="17" width="474" height="148"/><rect class="error" x="26" y="169" rx="14" width="468" height="142"/><text class="h2 red" x="48" y="210">  Proposal not updated</text><text class="body red" x="48" y="247">Try again. No access has changed.</text><text class="support" x="48" y="280">No protected error detail is shown.</text><rect class="primary" x="24" y="365" rx="12" width="472" height="58"/><text class="label white" x="215" y="401">Try again</text><rect class="control" x="24" y="445" rx="12" width="472" height="58"/><text class="label" x="199" y="481">Back to Circle</text><text class="support" x="24" y="555">Authorized safe metadata may remain;</text><text class="support" x="24" y="581">no private Care Recipient data appears.</text></g>
<g transform="translate(1225 5210)"><text class="cap" y="-14">SCREEN 10  -  NEUTRAL DENIAL</text><rect class="panel" rx="24" width="520" height="760"/><rect class="neutral" x="24" y="72" rx="18" width="472" height="340"/><text class="h2" x="48" y="120">  This proposal is unavailable</text><text class="body" x="48" y="175">Return to a Circle you can access.</text><text class="support" x="48" y="225">No proposal label, owner, dates, Circle,</text><text class="support" x="48" y="251">count, state, or reason appears.</text><rect class="primary" x="48" y="330" rx="12" width="424" height="56"/><text class="label white" x="187" y="365">Return to My Kinward</text><text class="support" x="24" y="480">The state does not confirm that a pending</text><text class="support" x="24" y="506">ownership proposal exists.</text></g>

<!-- Confirmations -->
<g transform="translate(55 6090)"><text class="cap" y="-14">SCREEN 4  -  DISCARD UNSUBMITTED DRAFT</text><rect class="panel" rx="24" width="520" height="760"/><rect class="decor" x="24" y="82" rx="20" width="472" height="500"/><text class="h1" x="48" y="135">Discard this unsubmitted</text><text class="h1" x="48" y="171">Circle?</text><text class="body" x="48" y="225">The Circle name and any settings</text><text class="body" x="48" y="255">you entered will be lost.</text><text class="support" x="48" y="298">No Circle has been created.</text><rect class="focus" x="43" y="335" rx="17" width="434" height="70"/><rect class="sep" x="47" y="339" rx="15" width="426" height="62"/><rect class="primary" x="50" y="342" rx="12" width="420" height="56"/><text class="label white" x="213" y="377">Keep editing</text><rect class="danger" x="48" y="430" rx="12" width="424" height="56"/><text class="label red" x="203" y="465">Discard draft</text><text class="support" x="48" y="535">Safe action is first and initially focused.</text><text class="support" x="24" y="640">Closing returns focus to Cancel.</text></g>
<g transform="translate(640 6090)"><text class="cap" y="-14">SCREEN 7  -  CANCEL INVITATION</text><rect class="panel" rx="24" width="520" height="760"/><rect class="decor" x="24" y="82" rx="20" width="472" height="500"/><text class="h1" x="48" y="135">Cancel this invitation?</text><text class="body" x="48" y="195">The link for j"""@example.test will</text><text class="body" x="48" y="225">stop working.</text><text class="body" x="48" y="270">No membership or authority will</text><text class="body" x="48" y="300">be created.</text><rect class="focus" x="43" y="335" rx="17" width="434" height="70"/><rect class="sep" x="47" y="339" rx="15" width="426" height="62"/><rect class="primary" x="50" y="342" rx="12" width="420" height="56"/><text class="label white" x="200" y="377">Keep invitation</text><rect class="danger" x="48" y="430" rx="12" width="424" height="56"/><text class="label red" x="193" y="465">Cancel invitation</text><text class="support" x="48" y="535">Safe action is first and initially focused.</text><text class="support" x="24" y="640">Closing returns focus to Cancel invitation.</text></g>
<g transform="translate(1225 6090)"><text class="cap" y="-14">SCREEN 10  -  CANCEL OWNERSHIP PROPOSAL</text><rect class="panel" rx="24" width="520" height="760"/><rect class="decor" x="24" y="82" rx="20" width="472" height="520"/><text class="h1" x="48" y="135">Cancel this ownership</text><text class="h1" x="48" y="171">proposal?</text><text class="body" x="48" y="225">The ownership invitation will stop</text><text class="body" x="48" y="255">working.</text><text class="body" x="48" y="300">No Care Recipient, ownership,</text><text class="body" x="48" y="330">authority, or membership is created.</text><rect class="focus" x="43" y="365" rx="17" width="434" height="70"/><rect class="sep" x="47" y="369" rx="15" width="426" height="62"/><rect class="primary" x="50" y="372" rx="12" width="420" height="56"/><text class="label white" x="202" y="407">Keep proposal</text><rect class="danger" x="48" y="460" rx="12" width="424" height="56"/><text class="label red" x="198" y="495">Cancel proposal</text><text class="support" x="48" y="565">Safe action is first and initially focused.</text><text class="support" x="24" y="660">Closing returns focus to Cancel proposal.</text></g>

<text class="support" x="60" y="6990">All visible controls are at least 48 px high. Focus examples use a 3 px violet ring with 2 px white separation. Static evidence only; no runtime conformance claim.</text>
</svg>
