<svg xmlns="http://www.w3.org/2000/svg" width="3360" height="2100" viewBox="0 0 3360 2100" role="img" aria-labelledby="title desc">
<title id="title">Draft G1 through G3 dedicated state evidence for twenty-one repaired screens</title>
<desc id="desc">Twenty-one permission-safe state cards cover ownership, roles, management modes, delegation lifecycle, backup and recovery, empty, loading, and denial behavior. Static evidence pending targeted re-audit.</desc>
<defs><style>
text{font-family:-apple-system,BlinkMacSystemFont,"Segoe UI",Roboto,Helvetica,Arial,sans-serif;fill:#20312A}.title{font-family:-apple-system,BlinkMacSystemFont,"Segoe UI",Roboto,Helvetica,Arial,sans-serif;font-size:28px;font-weight:700}.h2{font-family:-apple-system,BlinkMacSystemFont,"Segoe UI",Roboto,Helvetica,Arial,sans-serif;font-size:22px;font-weight:700}.body{font-family:-apple-system,BlinkMacSystemFont,"Segoe UI",Roboto,Helvetica,Arial,sans-serif;font-size:18px}.support{font-family:-apple-system,BlinkMacSystemFont,"Segoe UI",Roboto,Helvetica,Arial,sans-serif;font-size:16px;fill:#4C5F56}.card{fill:#FFFFFF;stroke:#4C5F56;stroke-width:2}.ctx{fill:#DCECE6}.info{fill:#E2F0F8}.warn{fill:#FFF1C7}.error{fill:#FBE7E5}.neutral{fill:#E9EEF0}.success{fill:#E2F1E6}.primary{fill:#17634D}.control{fill:#FFFFFF;stroke:#4C5F56;stroke-width:2}.danger{fill:#FFFFFF;stroke:#A33A3A;stroke-width:2}.white{font-family:-apple-system,BlinkMacSystemFont,"Segoe UI",Roboto,Helvetica,Arial,sans-serif;fill:#FFFFFF;font-size:16px;font-weight:700}.red{fill:#A33A3A}.focus{fill:none;stroke:#7047B6;stroke-width:3}.sep{fill:none;stroke:#FFFFFF;stroke-width:2}
</style><g id="base"><rect class="card" width="440" height="570" rx="20"/><rect class="ctx" x="16" y="16" width="408" height="54" rx="12"/><text class="support" x="32" y="49">ACTIVE CONTEXT · permission-safe</text></g></defs>
<rect width="3360" height="2100" fill="#F7F6F2"/><text class="title" x="40" y="52">Draft G1–G3 · dedicated state evidence · twenty-one repaired screens · pending targeted re-audit</text>

<g transform="translate(40 100)"><use href="#base"/><text class="h2" x="24" y="105">11 · Ownership acceptance</text><rect class="error" x="24" y="126" width="392" height="118" rx="12"/><text class="body red" x="42" y="160">! Consent required</text><text class="support" x="42" y="190">Check the 48 × 56 consent row.</text><text class="support" x="42" y="218">Focus returns to persistent label.</text><text class="body" x="24" y="278">◷ Accepting… · controls locked</text><text class="body" x="24" y="316">✓ Accepted · Dad now authorized</text><text class="body" x="24" y="354">◷ Expired · Request a new invitation</text><text class="body" x="24" y="392">⊘ Information unavailable · Return safely</text><rect class="focus" x="19" y="430" width="402" height="66" rx="15"/><rect class="sep" x="23" y="434" width="394" height="58" rx="13"/><rect class="primary" x="26" y="437" width="388" height="52" rx="10"/><text class="white" x="166" y="469" fill="#FFFFFF">Try acceptance</text></g>
<g transform="translate(510 100)"><use href="#base"/><text class="h2" x="24" y="105">12 · Ownership decline</text><rect class="warn" x="24" y="126" width="392" height="148" rx="12"/><text class="body" x="42" y="160">Decline invitation?</text><text class="support" x="42" y="190">No ownership, membership, or authority</text><text class="support" x="42" y="216">will begin. Nothing changes yet.</text><rect class="primary" x="24" y="300" width="392" height="52" rx="10"/><text class="white" x="166" y="332" fill="#FFFFFF">Keep reviewing</text><rect class="danger" x="24" y="368" width="392" height="52" rx="10"/><text class="body red" x="142" y="401">Decline invitation</text><rect class="success" x="24" y="444" width="392" height="82" rx="12"/><text class="body" x="42" y="477">✓ Invitation declined</text><text class="support" x="42" y="505">Close · no protected details shown</text></g>
<g transform="translate(980 100)"><use href="#base"/><text class="h2" x="24" y="105">14 · Circle member list</text><text class="body" x="24" y="146">○ Empty · No other members yet</text><text class="body" x="24" y="184">◷ Pending · invitation not active</text><text class="body" x="24" y="222">✓ Active · icon plus text badge</text><text class="body" x="24" y="260">◷ Loading permitted members…</text><text class="body red" x="24" y="298">! Couldn’t load · Retry</text><rect class="neutral" x="24" y="326" width="392" height="116" rx="12"/><text class="body" x="42" y="361">⊘ Information unavailable</text><text class="support" x="42" y="391">No person, count, or reason revealed.</text><text class="support" x="42" y="417">Return safely</text><rect class="primary" x="24" y="466" width="392" height="52" rx="10"/><text class="white" x="156" y="498" fill="#FFFFFF">Invite an adult</text></g>
<g transform="translate(1450 100)"><use href="#base"/><text class="h2" x="24" y="105">15 · Circle-wide role</text><text class="body" x="24" y="150">! Select an available role</text><text class="body" x="24" y="190">⊘ Last Circle Head · unavailable</text><text class="body" x="24" y="230">Unsaved changes · Return to editing</text><text class="body" x="24" y="270">Leave without saving · confirmation</text><rect class="success" x="24" y="302" width="392" height="90" rx="12"/><text class="body" x="42" y="337">✓ Circle-wide role updated</text><text class="support" x="42" y="367">No recipient access was granted.</text><rect class="primary" x="24" y="430" width="392" height="52" rx="10"/><text class="white" x="157" y="462" fill="#FFFFFF">Save role update</text><rect class="control" x="24" y="498" width="392" height="52" rx="10"/><text class="body" x="164" y="531">Cancel</text></g>
<g transform="translate(1920 100)"><use href="#base"/><text class="h2" x="24" y="105">16 · Dad-specific role</text><text class="body" x="24" y="150">! Exact scope is required</text><text class="body" x="24" y="190">⊘ Role unavailable for Dad</text><text class="body" x="24" y="230">Unsaved changes · Return to editing</text><text class="body" x="24" y="270">Leave without saving · confirmation</text><rect class="success" x="24" y="302" width="392" height="110" rx="12"/><text class="body" x="42" y="337">✓ Dad-specific role updated</text><text class="support" x="42" y="367">Other Care Recipients unchanged.</text><text class="support" x="42" y="393">Review access · Close</text><rect class="primary" x="24" y="450" width="392" height="52" rx="10"/><text class="white" x="157" y="482" fill="#FFFFFF">Review update</text></g>
<g transform="translate(2390 100)"><use href="#base"/><text class="h2" x="24" y="105">17–18 · Management modes</text><text class="body" x="24" y="150">! Choose an eligible adult and scope</text><text class="body" x="24" y="190">⊘ Choice unavailable · reason shown</text><text class="body" x="24" y="230">Unsaved setup · Discard confirmation</text><text class="body" x="24" y="270">◷ Checking permitted choices…</text><text class="body red" x="24" y="310">! Catalog unavailable · Retry</text><rect class="success" x="24" y="340" width="392" height="108" rx="12"/><text class="body" x="42" y="375">✓ Management mode saved</text><text class="support" x="42" y="405">Dad remains sole owner.</text><text class="support" x="42" y="431">Review access · Close</text><rect class="control" x="24" y="476" width="392" height="52" rx="10"/><text class="body" x="136" y="509">Return to editing</text></g>
<g transform="translate(2860 100)"><use href="#base"/><text class="h2" x="24" y="105">19 · Delegated setup</text><text class="body" x="24" y="150">! Select an eligible representative</text><text class="body" x="24" y="190">⊘ Adult unavailable · explanation</text><text class="body" x="24" y="230">Discard setup? · Keep editing</text><text class="body" x="24" y="270">◷ Loading permitted adults…</text><text class="body red" x="24" y="310">! System error · Retry</text><rect class="neutral" x="24" y="338" width="392" height="95" rx="12"/><text class="body" x="42" y="373">⊘ Information unavailable</text><text class="support" x="42" y="403">No hidden identity or count.</text><rect class="primary" x="24" y="466" width="392" height="52" rx="10"/><text class="white" x="145" y="498" fill="#FFFFFF">Continue to scope</text></g>

<g transform="translate(40 700)"><use href="#base"/><text class="h2" x="24" y="105">20 · Delegation scope</text><text class="body" x="24" y="150">✓ Selected · boundary and mark</text><text class="body" x="24" y="190">⊘ Unavailable · reason and next step</text><text class="body" x="24" y="230">! Select at least one exact scope</text><text class="body" x="24" y="270">◷ Saving selected scope…</text><text class="body red" x="24" y="310">! Scope catalog unavailable · Retry</text><text class="body" x="24" y="350">Discard changes? · Return to editing</text><rect class="primary" x="24" y="402" width="392" height="52" rx="10"/><text class="white" x="132" y="434" fill="#FFFFFF">Continue to duration</text><rect class="control" x="24" y="470" width="392" height="52" rx="10"/><text class="body" x="178" y="503">Back</text></g>
<g transform="translate(510 700)"><use href="#base"/><text class="h2" x="24" y="105">21 · Duration selection cards</text><rect class="error" x="24" y="126" width="392" height="70" rx="12"/><text class="body red" x="42" y="170">! Choose an expiration option</text><rect class="focus" x="19" y="214" width="402" height="86" rx="17"/><rect class="sep" x="23" y="218" width="394" height="78" rx="15"/><rect x="26" y="221" width="388" height="72" rx="12" fill="#DCECE6" stroke="#17634D" stroke-width="3"/><text class="body" x="42" y="252">✓ 90 days · Selected</text><text class="support" x="42" y="278">Suggested · ends about Jul 16</text><rect class="control" x="24" y="316" width="392" height="60" rx="12"/><text class="body" x="42" y="354">Custom date · Month / day / year</text><rect class="control" x="24" y="390" width="392" height="72" rx="12"/><text class="body" x="42" y="422">Until revoked · opens Screen 22</text><text class="support" x="42" y="448">Full-row targets ≥ 48 px high</text><rect class="primary" x="24" y="478" width="392" height="52" rx="10"/><text class="white" fill="#FFFFFF" x="148" y="510">Review delegation</text></g>
<g transform="translate(980 700)"><use href="#base"/><text class="h2" x="24" y="105">23 · Delegation detail</text><text class="body" x="24" y="150">✓ Active · grant-scoped metadata</text><text class="body" x="24" y="190">Modify · selection form retained</text><text class="body" x="24" y="230">◷ Updating this grant…</text><text class="body red" x="24" y="270">! Update failed · Retry</text><text class="body" x="24" y="310">✓ Updated · Review access</text><rect class="neutral" x="24" y="334" width="392" height="88" rx="12"/><text class="body" x="42" y="368">⊘ Information unavailable</text><text class="support" x="42" y="397">No identity or grant metadata.</text><rect class="primary" x="24" y="450" width="120" height="52" rx="10"/><text class="white" x="55" y="482" fill="#FFFFFF">Modify</text><rect class="control" x="160" y="450" width="120" height="52" rx="10"/><text class="body" x="182" y="483">Suspend</text><rect class="danger" x="296" y="450" width="120" height="52" rx="10"/><text class="body red" x="324" y="483">Revoke</text></g>
<g transform="translate(1450 700)"><use href="#base"/><text class="h2" x="24" y="105">25 · Suspend grant</text><text class="body" x="24" y="150">Suspend Riley’s Dad grant?</text><text class="support" x="24" y="180">Stops this grant immediately; history stays.</text><text class="body" x="24" y="220">◷ Suspending this grant…</text><text class="body red" x="24" y="260">! Couldn’t suspend · Try again</text><text class="body" x="24" y="300">✓ Suspended · Close</text><rect class="neutral" x="24" y="326" width="392" height="88" rx="12"/><text class="body" x="42" y="360">⊘ Information unavailable</text><text class="support" x="42" y="389">No grant or person disclosed.</text><rect class="primary" x="24" y="444" width="392" height="52" rx="10"/><text class="white" x="154" y="476" fill="#FFFFFF">Suspend access</text><rect class="control" x="24" y="508" width="392" height="48" rx="10"/><text class="body" x="145" y="539">Keep access</text></g>
<g transform="translate(1920 700)"><use href="#base"/><text class="h2" x="24" y="105">26 · Revoke grant</text><text class="body" x="24" y="150">Revoke Riley’s Dad grant?</text><text class="support" x="24" y="180">Permanently ends this exact grant.</text><text class="body" x="24" y="220">◷ Revoking this grant…</text><text class="body red" x="24" y="260">! Couldn’t revoke · Try again</text><text class="body" x="24" y="300">✓ Revoked · Close</text><rect class="neutral" x="24" y="326" width="392" height="88" rx="12"/><text class="body" x="42" y="360">⊘ Information unavailable</text><text class="support" x="42" y="389">No protected metadata disclosed.</text><rect class="primary" x="24" y="444" width="392" height="52" rx="10"/><text class="white" x="164" y="476" fill="#FFFFFF">Keep access</text><rect class="danger" x="24" y="508" width="392" height="48" rx="10"/><text class="body red" x="158" y="539">Revoke access</text></g>
<g transform="translate(2390 700)"><use href="#base"/><text class="h2" x="24" y="105">28 · Backup designation</text><text class="body" x="24" y="150">○ No eligible adult members</text><text class="body" x="24" y="190">✓ Riley selected · full 48 px row</text><text class="body" x="24" y="230">◷ Dormant · zero authority</text><text class="body" x="24" y="270">! Choose an eligible adult</text><text class="body" x="24" y="310">◷ Saving designation…</text><text class="body" x="24" y="350">✓ Designated · still dormant</text><rect class="neutral" x="24" y="378" width="392" height="76" rx="12"/><text class="body" x="42" y="411">⊘ Information unavailable · Return</text><rect class="primary" x="24" y="478" width="392" height="52" rx="10"/><text class="white" x="138" y="510" fill="#FFFFFF">Review designation</text></g>
<g transform="translate(2860 700)"><use href="#base"/><text class="h2" x="24" y="105">29–30 · Activation/recovery</text><text class="body" x="24" y="150">◷ Fresh verification required</text><text class="body" x="24" y="190">⊘ Activation unavailable · dormant</text><text class="body" x="24" y="230">◷ Checking authorization…</text><text class="body" x="24" y="270">⊘ Request denied · no authority</text><text class="body red" x="24" y="310">! Verification failed · Retry</text><rect class="neutral" x="24" y="338" width="392" height="110" rx="12"/><text class="body" x="42" y="372">Request unavailable</text><text class="support" x="42" y="402">No alternate recovery in Milestone One.</text><text class="support" x="42" y="428">Return to My Kinward</text><rect class="primary" x="24" y="476" width="392" height="52" rx="10"/><text class="white" x="130" y="508" fill="#FFFFFF">Return to My Kinward</text></g>

<g transform="translate(40 1300)"><use href="#base"/><text class="h2" x="24" y="105">33 · Consequential denial</text><rect class="neutral" x="24" y="132" width="392" height="180" rx="12"/><text class="h2" x="42" y="170">⊘ Nothing changed</text><text class="body" x="42" y="208">This action isn’t available with</text><text class="body" x="42" y="238">your current access.</text><text class="support" x="42" y="274">No protected reason or identity.</text><rect class="focus" x="19" y="350" width="402" height="66" rx="15"/><rect class="sep" x="23" y="354" width="394" height="58" rx="13"/><rect class="primary" x="26" y="357" width="388" height="52" rx="10"/><text class="white" x="187" y="389" fill="#FFFFFF">Return</text><text class="support" x="24" y="454">Safe navigation only · 48 px target</text></g>
<g transform="translate(510 1300)"><use href="#base"/><text class="h2" x="24" y="105">34 · Representative empty states</text><text class="body" x="24" y="150">○ No other members yet · Invite adult</text><text class="body" x="24" y="190">○ No eligible backup members · Close</text><text class="body" x="24" y="230">○ No permitted audit events · Clear filter</text><text class="body" x="24" y="270">○ No active delegations · Start setup</text><rect class="info" x="24" y="304" width="392" height="116" rx="12"/><text class="body" x="42" y="340">Authorized true-empty only</text><text class="support" x="42" y="372">Filtered or hidden records never produce</text><text class="support" x="42" y="398">a count or existence clue.</text><rect class="primary" x="24" y="452" width="392" height="52" rx="10"/><text class="white" x="155" y="484" fill="#FFFFFF">Available action</text></g>
<g transform="translate(980 1300)"><use href="#base"/><text class="h2" x="24" y="105">36 · Loading/context clearing</text><text class="body" x="24" y="150">◷ Loading permitted content…</text><text class="body" x="24" y="190">◷ Saving without duplicate submit…</text><text class="body" x="24" y="230">◷ Switching context…</text><rect class="neutral" x="24" y="254" width="392" height="142" rx="12"/><text class="body" x="42" y="290">Previous context cleared</text><text class="support" x="42" y="322">No prior labels, counts, drafts, or</text><text class="support" x="42" y="348">late responses render while checking.</text><text class="support" x="42" y="374">Destination appears after authorization.</text><rect class="control" x="24" y="438" width="392" height="52" rx="10"/><text class="body" x="182" y="471">Back</text></g>
<g transform="translate(1450 1300)"><use href="#base"/><text class="h2" x="24" y="105">37 · Non-leaking denial</text><rect class="neutral" x="24" y="132" width="392" height="190" rx="12"/><text class="h2" x="42" y="170">⊘ Information unavailable</text><text class="body" x="42" y="208">This information isn’t available</text><text class="body" x="42" y="238">to you.</text><text class="support" x="42" y="274">No record, person, reason, event,</text><text class="support" x="42" y="300">context identity, or count is revealed.</text><rect class="primary" x="24" y="358" width="392" height="52" rx="10"/><text class="white" x="130" y="390" fill="#FFFFFF">Return to My Kinward</text><text class="support" x="24" y="450">Access unchanged · safe close path</text></g>
<g transform="translate(1920 1300)"><use href="#base"/><text class="h2" x="24" y="105">Focus and target evidence</text><text class="body" x="24" y="150">Consent · selection · form · confirmation</text><text class="body" x="24" y="190">Error summary · navigation · context action</text><rect class="focus" x="19" y="228" width="402" height="74" rx="17"/><rect class="sep" x="23" y="232" width="394" height="66" rx="15"/><rect class="control" x="26" y="235" width="388" height="60" rx="12"/><text class="body" x="48" y="273">✓ Selected option · 388 × 60 px</text><text class="support" x="24" y="340">3 px Violet 600 + explicit 2 px white</text><text class="support" x="24" y="368">separation; ring is not clipped.</text><text class="support" x="24" y="410">Rows wrap and grow vertically.</text><text class="support" x="24" y="438">No invisible hit area is assumed.</text></g>
<g transform="translate(2390 1300)"><use href="#base"/><text class="h2" x="24" y="105">Calibrated 200% evidence</text><text class="body" x="24" y="150">Labels/support: 16 → 32 px</text><text class="body" x="24" y="190">Body: 18 → 36 px</text><text class="body" x="24" y="230">Section heading: 22 → 44 px</text><text class="body" x="24" y="270">Page heading: 28 → 56 px</text><rect class="info" x="24" y="306" width="392" height="128" rx="12"/><text class="body" x="42" y="342">Long rows grow vertically.</text><text class="support" x="42" y="374">Actions stack; metadata wraps; no</text><text class="support" x="42" y="402">horizontal overflow or clipped focus.</text><rect class="control" x="24" y="466" width="392" height="60" rx="10"/><text class="body" x="96" y="503">Open calibrated evidence</text></g>
<g transform="translate(2860 1300)"><use href="#base"/><text class="h2" x="24" y="105">State evidence key</text><text class="body" x="24" y="150">✓ Success / Active / Selected / Verified</text><text class="body" x="24" y="190">◷ Pending / Loading / Dormant</text><text class="body" x="24" y="230">⊘ Denied / Blocked / Unavailable</text><text class="body red" x="24" y="270">! Error / Expired / Revoked</text><text class="support" x="24" y="310">Every status uses a mark plus text.</text><text class="support" x="24" y="342">Colors are supplementary.</text><text class="support" x="24" y="382">All examples are synthetic.</text><text class="support" x="24" y="414">No medical or private real-family data.</text><text class="support" x="24" y="454">Static design evidence only.</text><text class="support" x="24" y="486">Pending targeted final re-audit.</text></g>
</svg>
