<svg xmlns="http://www.w3.org/2000/svg" width="1800" height="4100" viewBox="0 0 1800 4100" role="img" aria-labelledby="title desc">
  <title id="title">Kinward Milestone One repaired representative high-fidelity screen board</title>
  <desc id="desc">Eleven selected static mobile screen concepts with compliant typography, visible touch targets, explicit context, permission boundaries, and accessibility evidence. Verified representative high-fidelity board; Milestone One coding authorized (D-18); non-medical foundation only.</desc>
  <defs><style>
    text{font-family:-apple-system,BlinkMacSystemFont,"Segoe UI",Roboto,Helvetica,Arial,sans-serif;fill:#20312A}.bg{fill:#ECEFEA}.phone{fill:#F7F6F2;stroke:#20312A;stroke-width:4}.decor{fill:#FFF;stroke:#C9D2CD;stroke-width:2}.control{fill:#FFF;stroke:#4C5F56;stroke-width:2}.primary{fill:#17634D}.ctx{fill:#DCECE6}.info{fill:#E2F0F8}.warn{fill:#FFF1C7}.error{fill:#FBE7E5}.neutral{fill:#E9EEF0}.danger{fill:#FFF;stroke:#A33A3A;stroke-width:2}.focus{fill:none;stroke:#7047B6;stroke-width:3}.sep{fill:none;stroke:#FFF;stroke-width:2}.h1{font-size:28px;font-weight:700}.h2{font-size:22px;font-weight:700}.body{font-size:18px}.support{font-size:16px;fill:#4C5F56}.label{font-size:16px;font-weight:700}.white{fill:#FFF}.red{fill:#A33A3A}.blue{fill:#155E8A}.cap{font-size:16px;font-weight:700}.nav{font-size:16px;font-weight:700}.title{font-size:44px;font-weight:700}.sub{font-size:22px;fill:#4C5F56}.rule{stroke:#C9D2CD;stroke-width:2}
  </style></defs>
  <rect class="bg" width="1800" height="4100"/><text class="title" x="70" y="70">Kinward · repaired representative review set</text><text class="sub" x="70" y="110">Verified representative high-fidelity screens · GOV-007 Closed — PASS · all visible actions are 48 px or taller</text>

  <g transform="translate(55 165)"><text class="cap" y="-14">SCREEN 1 · VERIFIED-EMAIL SIGN-IN</text><rect class="phone" rx="28" width="520" height="850"/><text class="h2" x="28" y="52">◖ Kinward</text><text class="h1" x="28" y="112">Welcome to Kinward</text><text class="body" x="28" y="145">Care moves better together</text><rect class="decor" x="24" y="180" rx="16" width="472" height="430"/><text class="label" x="48" y="225">Verified email address</text><rect class="control" x="48" y="244" rx="12" width="424" height="60"/><text class="body" x="65" y="282">name@example.test</text><rect class="focus" x="43" y="325" rx="17" width="434" height="70"/><rect class="sep" x="47" y="329" rx="15" width="426" height="62"/><rect class="primary" x="50" y="332" rx="12" width="420" height="56"/><text class="label white" x="179" y="367">Continue with email</text><rect class="control" x="48" y="420" rx="12" width="424" height="56"/><text class="label blue" x="178" y="455">Use invitation link</text><text class="support" x="48" y="515">Private sign-in</text><text class="support" x="48" y="544">No Circle information appears until identity</text><text class="support" x="48" y="570">and access are confirmed.</text><text class="support" x="28" y="790">FOCUS: 3 px violet + 2 px white separation</text></g>

  <g transform="translate(640 165)"><text class="cap" y="-14">SCREEN 3 · MY KINWARD</text><rect class="phone" rx="28" width="520" height="850"/><text class="h1" x="24" y="58">My Kinward</text><text class="support" x="24" y="86">Signed in: a•••@example.test</text><rect class="warn" x="24" y="110" rx="16" width="472" height="170"/><text class="h2" x="46" y="148">◷ Access review due</text><text class="label" x="46" y="180">Dad · Riley access</text><text class="body" x="46" y="211">No access changes automatically.</text><rect class="primary" x="46" y="225" rx="12" width="426" height="48"/><text class="label white" x="198" y="255">Review access</text><rect class="info" x="24" y="300" rx="16" width="472" height="145"/><text class="h2" x="46" y="338">◷ Pending invitation</text><text class="body" x="46" y="370">Harbor Circle · Not active</text><rect class="control" x="46" y="385" rx="12" width="426" height="52"/><text class="label blue" x="190" y="418">Review invitation</text><text class="h2" x="24" y="490">Active Circles</text><rect class="decor" x="24" y="510" rx="16" width="472" height="135"/><text class="label" x="46" y="548">Harbor Circle</text><text class="support" x="46" y="577">Circle Head</text><rect class="control" x="260" y="530" rx="12" width="210" height="56"/><text class="label blue" x="319" y="565">Open Harbor</text><rect class="control" x="24" y="670" rx="12" width="472" height="56"/><text class="label" x="194" y="705">Create a Circle</text></g>

  <g transform="translate(1225 165)"><text class="cap" y="-14">SCREEN 5 · CIRCLE OVERVIEW</text><rect class="phone" rx="28" width="520" height="850"/><rect class="ctx" x="20" y="20" rx="14" width="480" height="120"/><text class="support" x="40" y="50">CIRCLE</text><text class="label" x="130" y="50">Harbor Circle</text><text class="support" x="40" y="80">CARE RECIPIENT</text><text class="label" x="200" y="80">Circle-wide</text><rect class="control" x="40" y="92" rx="10" width="210" height="48"/><text class="label blue" x="90" y="122">Switch context</text><text class="h1" x="24" y="190">Harbor Circle</text><rect class="info" x="24" y="215" rx="14" width="472" height="72"/><text class="support" x="45" y="246">Circle-wide roles coordinate the Circle.</text><text class="support" x="45" y="273">They do not grant Care Recipient access.</text><text class="h2" x="24" y="330">Permitted Care Recipients</text><rect class="decor" x="24" y="350" rx="14" width="225" height="92"/><text class="label" x="46" y="387">Dad</text><text class="support" x="46" y="416">Access permitted</text><rect class="decor" x="271" y="350" rx="14" width="225" height="92"/><text class="label" x="293" y="387">Mom</text><text class="support" x="293" y="416">Access permitted</text><rect class="primary" x="24" y="470" rx="12" width="472" height="56"/><text class="label white" x="178" y="505">Switch Care Recipient</text><rect class="control" x="24" y="545" rx="12" width="225" height="52"/><text class="label" x="105" y="578">Members</text><rect class="control" x="271" y="545" rx="12" width="225" height="52"/><text class="label" x="359" y="578">Roles</text><rect class="control" x="24" y="615" rx="12" width="225" height="52"/><text class="label" x="91" y="648">Invite adult</text><rect class="control" x="271" y="615" rx="12" width="225" height="52"/><text class="label" x="313" y="648">Add Care Recipient</text><text class="support" x="24" y="735">Only permitted recipients appear; no hidden count.</text></g>

  <g transform="translate(55 1090)"><text class="cap" y="-14">SCREEN 13 · CARE RECIPIENT SWITCHER</text><rect class="phone" rx="28" width="520" height="850"/><rect class="ctx" x="20" y="20" rx="14" width="480" height="66"/><text class="label" x="40" y="61">Circle · Harbor Circle</text><text class="h1" x="24" y="140">Choose context</text><text class="body" x="24" y="178">Only contexts you can access are listed.</text><rect x="24" y="210" rx="14" width="472" height="82" fill="#DCECE6" stroke="#17634D" stroke-width="3"/><text class="h2" x="48" y="260">◉ Circle-wide · Selected</text><rect class="control" x="24" y="310" rx="14" width="472" height="72"/><text class="h2" x="48" y="356">○ Dad</text><rect class="control" x="24" y="400" rx="14" width="472" height="72"/><text class="h2" x="48" y="446">○ Mom</text><rect class="primary" x="24" y="510" rx="12" width="472" height="56"/><text class="label white" x="190" y="545">Switch context</text><rect class="control" x="24" y="582" rx="12" width="472" height="56"/><text class="label" x="231" y="617">Cancel</text><text class="support" x="24" y="700">Full-page labeled radio group; no custom dropdown.</text></g>

  <g transform="translate(640 1090)"><text class="cap" y="-14">SCREEN 24 · ACCESS REVIEW DUE</text><rect class="phone" rx="28" width="520" height="850"/><rect class="ctx" x="20" y="20" rx="14" width="480" height="76"/><text class="support" x="40" y="49">CIRCLE · Harbor Circle</text><text class="label" x="40" y="78">Care Recipient · Dad</text><text class="h1" x="24" y="145">Review Riley’s access</text><rect class="warn" x="24" y="170" rx="14" width="472" height="112"/><text class="h2" x="46" y="207">◷ Access review due · July 16</text><text class="body" x="46" y="240">Access remains active while you decide.</text><text class="support" x="46" y="267">Viewing this page changes nothing.</text><rect class="decor" x="24" y="300" rx="14" width="472" height="90"/><text class="label" x="46" y="334">Current scopes</text><text class="body" x="46" y="368">✓ Manage roles  ·  ✓ Review permissions</text><rect class="primary" x="24" y="415" rx="12" width="472" height="58"/><text class="label white" x="209" y="451">Keep access</text><text class="h2" x="24" y="520">Other access decisions</text><rect class="control" x="24" y="540" rx="12" width="225" height="56"/><text class="label" x="80" y="575">Modify access</text><rect class="control" x="271" y="540" rx="12" width="225" height="56"/><text class="label" x="326" y="575">Suspend access</text><rect class="danger" x="24" y="615" rx="12" width="472" height="56"/><text class="label red" x="203" y="650">Revoke access</text><text class="support" x="24" y="720">Reminder only · no automatic renewal or expiry.</text></g>

  <g transform="translate(1225 1090)"><text class="cap" y="-14">SCREEN 27 · MANAGED MINOR</text><rect class="phone" rx="28" width="520" height="850"/><rect class="ctx" x="20" y="20" rx="14" width="480" height="58"/><text class="label" x="40" y="56">Harbor Circle · Circle-wide</text><text class="h1" x="24" y="128">Kai’s basic profile</text><rect class="neutral" x="24" y="150" rx="18" width="235" height="42"/><text class="label" x="44" y="177">▣ Managed profile</text><text class="support" x="278" y="177">Managed by Morgan</text><text class="label" x="24" y="230">Preferred name</text><rect class="control" x="24" y="244" rx="12" width="472" height="54"/><text class="body" x="44" y="278">Kai</text><text class="label" x="24" y="330">Relationship</text><rect class="control" x="24" y="344" rx="12" width="472" height="54"/><text class="body" x="44" y="378">Family</text><text class="label" x="24" y="430">Age band</text><rect class="control" x="24" y="444" rx="12" width="472" height="54"/><text class="body" x="44" y="478">Teen</text><text class="label" x="24" y="530">Visibility</text><rect class="control" x="24" y="544" rx="12" width="472" height="60"/><text class="body" x="44" y="581">Approved Circle members</text><rect class="info" x="24" y="625" rx="14" width="472" height="92"/><text class="support" x="44" y="655">Age band changes display only.</text><text class="support" x="44" y="681">No automatic adult-account conversion.</text><text class="support" x="44" y="707">Transition rules remain deferred.</text><rect class="primary" x="24" y="742" rx="12" width="472" height="56"/><text class="label white" x="191" y="777">Save basic profile</text></g>

  <g transform="translate(55 2015)"><text class="cap" y="-14">SCREEN 31 · LAST CIRCLE HEAD BLOCKED</text><rect class="phone" rx="28" width="520" height="850"/><rect class="ctx" x="20" y="20" rx="14" width="480" height="58"/><text class="label" x="40" y="56">Harbor Circle · Circle-wide</text><rect class="warn" x="24" y="110" rx="16" width="472" height="340"/><text class="h2" x="48" y="150">▣ Blocked</text><text class="h1" x="48" y="198">You can’t leave</text><text class="h1" x="48" y="234">Harbor Circle yet</text><text class="body" x="48" y="280">Another verified adult must accept</text><text class="body" x="48" y="310">Circle Head before this can change.</text><text class="body" x="48" y="352">A backup designation or activation</text><text class="body" x="48" y="382">does not replace a Circle Head and</text><text class="body" x="48" y="412">cannot bypass this step.</text><rect class="primary" x="24" y="485" rx="12" width="472" height="58"/><text class="label white" x="176" y="521">Invite a replacement</text><rect class="control" x="24" y="565" rx="12" width="472" height="58"/><text class="label" x="184" y="601">Return to settings</text><text class="support" x="24" y="690">Dormant backup retains zero authority.</text></g>

  <g transform="translate(640 2015)"><text class="cap" y="-14">SCREEN 32 · PERMISSION-FILTERED AUDIT</text><rect class="phone" rx="28" width="520" height="850"/><rect class="ctx" x="20" y="20" rx="14" width="480" height="58"/><text class="label" x="40" y="56">Harbor Circle · Dad</text><text class="h1" x="24" y="125">Audit history</text><text class="support" x="24" y="154">Only authorized events and fields appear.</text><rect class="control" x="24" y="175" rx="12" width="472" height="54"/><text class="label" x="44" y="209">Filter events · All permitted</text><rect class="decor" x="24" y="250" rx="16" width="472" height="230"/><text class="support" x="46" y="280">CIRCLE-WIDE · JUL 16</text><text class="h2" x="46" y="316">Family Coordinator role updated</text><text class="body" x="46" y="348">Actor: Alexandra Montgomery-Santos</text><text class="support" x="46" y="378">Scope: Harbor Circle · Result: Active ✓</text><rect class="control" x="46" y="402" rx="12" width="426" height="56"/><text class="label blue" x="169" y="437">View permitted details</text><rect class="decor" x="24" y="500" rx="16" width="472" height="230"/><text class="support" x="46" y="530">CARE RECIPIENT · DAD · JUL 15</text><text class="h2" x="46" y="565">Access review recorded</text><text class="body" x="46" y="597">Actor unavailable in your scope</text><text class="support" x="46" y="627">Metadata: permitted fields only; omitted</text><text class="support" x="46" y="652">fields leave no placeholder or hidden count.</text><rect class="control" x="46" y="670" rx="12" width="426" height="48"/><text class="label blue" x="169" y="700">View permitted details</text><rect class="neutral" x="24" y="750" rx="12" width="472" height="62"/><text class="support" x="44" y="779">Filtered result: No permitted events match.</text><text class="support" x="44" y="803">Clear filter · no hidden total disclosed</text></g>

  <g transform="translate(1225 2015)"><text class="cap" y="-14">SCREEN 35 · FORM ERROR</text><rect class="phone" rx="28" width="520" height="850"/><rect class="ctx" x="20" y="20" rx="14" width="480" height="58"/><text class="label" x="40" y="56">Harbor Circle · Circle-wide</text><text class="h1" x="24" y="125">Invite an adult</text><rect class="focus" x="19" y="146" rx="20" width="482" height="146"/><rect class="sep" x="23" y="150" rx="18" width="474" height="138"/><rect class="error" x="26" y="153" rx="16" width="468" height="132"/><text class="h2 red" x="48" y="193">ⓧ Check the highlighted fields</text><text class="body red" x="48" y="230">Email — enter a valid verified email</text><text class="body red" x="48" y="258">address. Focus is on this summary.</text><text class="label" x="24" y="335">Verified email address</text><rect x="24" y="350" rx="12" width="472" height="60" fill="#FFF" stroke="#A33A3A" stroke-width="3"/><text class="body" x="44" y="387">jordan.example.test</text><text class="body red" x="24" y="445">ⓧ Include @ and a valid domain.</text><text class="support" x="24" y="478">Input is retained. No account or Circle</text><text class="support" x="24" y="504">existence information is revealed.</text><rect class="primary" x="24" y="545" rx="12" width="472" height="58"/><text class="label white" x="185" y="581">Review invitation</text><rect class="control" x="24" y="625" rx="12" width="472" height="58"/><text class="label" x="230" y="661">Cancel</text></g>

  <g transform="translate(55 2940)"><text class="cap" y="-14">SCREEN 38 · MOBILE NAVIGATION</text><rect class="phone" rx="28" width="520" height="850"/><rect class="ctx" x="20" y="20" rx="14" width="480" height="80"/><text class="support" x="40" y="50">CIRCLE · Harbor Circle</text><text class="label" x="40" y="80">Care Recipient · Dad</text><text class="h1" x="24" y="150">Overview</text><rect class="decor" x="24" y="175" rx="16" width="472" height="150"/><text class="h2" x="46" y="215">Clear page content</text><text class="body" x="46" y="250">The page action remains primary.</text><text class="body" x="46" y="282">Navigation is a separate landmark.</text><rect class="decor" x="18" y="640" rx="18" width="484" height="175"/><rect x="28" y="650" rx="10" width="88" height="100" fill="#DCECE6" stroke="#17634D" stroke-width="2"/><rect class="primary" x="28" y="650" width="88" height="6"/><text class="nav" x="66" y="678">⌂</text><text class="nav" x="38" y="705">Overview</text><text class="support" x="43" y="735">Current</text><rect class="control" x="122" y="650" rx="10" width="88" height="100"/><text class="nav" x="160" y="680">◎</text><text class="nav" x="130" y="710">Members</text><rect class="control" x="216" y="650" rx="10" width="88" height="100"/><text class="nav" x="254" y="680">◇</text><text class="nav" x="235" y="710">Roles</text><rect class="control" x="310" y="650" rx="10" width="88" height="100"/><text class="nav" x="348" y="680">≡</text><text class="nav" x="333" y="710">Audit</text><rect class="control" x="404" y="650" rx="10" width="88" height="100"/><text class="nav" x="442" y="680">⚙</text><text class="nav" x="412" y="710">Settings</text><text class="support" x="28" y="790">Each destination visibly occupies at least 88 × 100 px.</text></g>

  <g transform="translate(640 2940)"><text class="cap" y="-14">SCREEN 39 · CONTEXT RESET SEQUENCE</text><rect class="phone" rx="28" width="520" height="850"/><text class="support" x="24" y="40">1 · Dad context · Switch to Mom initiated</text><rect class="warn" x="24" y="58" rx="14" width="472" height="150"/><text class="h2" x="46" y="95">2 · Unsaved changes in Dad</text><text class="body" x="46" y="128">Keep working cancels and remains in Dad.</text><rect class="primary" x="46" y="145" rx="10" width="204" height="48"/><text class="label white" x="70" y="175">Keep working in Dad</text><rect class="danger" x="268" y="145" rx="10" width="204" height="48"/><text class="label red" x="300" y="175">Discard and switch</text><rect class="neutral" x="24" y="228" rx="14" width="472" height="120"/><text class="h2" x="46" y="265">3–4 · Previous context cleared</text><text class="body" x="46" y="298">Switching context… Checking access.</text><text class="support" x="46" y="328">No Dad or Mom protected content shown.</text><rect class="info" x="24" y="368" rx="14" width="472" height="92"/><text class="h2" x="46" y="405">5 · Late Dad response discarded</text><text class="support" x="46" y="438">Ignored; it cannot repaint this view.</text><rect class="ctx" x="24" y="480" rx="14" width="472" height="110"/><text class="h2" x="46" y="518">6 · Authorized destination</text><text class="body" x="46" y="552">Harbor Circle · Mom · Context ready</text><text class="support" x="46" y="578">Mom content appears only after authorization.</text><rect class="neutral" x="24" y="610" rx="14" width="472" height="120"/><text class="h2" x="46" y="648">7 · Information unavailable</text><text class="body" x="46" y="680">The selected context cannot be opened.</text><text class="support" x="46" y="711">No name, reason, count, or existence clue.</text><text class="support" x="24" y="780">Cancel path: Dad draft and request remain intact.</text></g>

  <g transform="translate(1225 2940)"><text class="cap" y="-14">REVIEW KEY</text><rect class="decor" rx="24" width="520" height="850"/><text class="h1" x="28" y="62">Evidence rules</text><text class="body" x="28" y="110">✓ Body text ≥ 18 px</text><text class="body" x="28" y="150">✓ Supporting and navigation text ≥ 16 px</text><text class="body" x="28" y="190">✓ Visible controls ≥ 48 px high</text><text class="body" x="28" y="230">✓ Interactive borders use Ink 700</text><text class="body" x="28" y="270">✓ Mineral 300 is decorative only</text><text class="body" x="28" y="310">✓ Status uses text plus icon/shape</text><text class="body" x="28" y="350">✓ Protected context is written</text><text class="body" x="28" y="390">✓ Red is error/destructive only</text><text class="body" x="28" y="430">✓ No hidden-record counts</text><line class="rule" x1="28" x2="492" y1="470" y2="470"/><text class="h2" x="28" y="520">Focus example</text><rect class="focus" x="24" y="545" rx="17" width="472" height="70"/><rect class="sep" x="28" y="549" rx="15" width="464" height="62"/><rect class="primary" x="31" y="552" rx="12" width="458" height="56"/><text class="label white" x="178" y="587">Focused primary action</text><text class="support" x="28" y="650">3 px violet ring + 2 px white separation.</text><text class="support" x="28" y="700">Static SVG design evidence only.</text><text class="support" x="28" y="730">Runtime accessibility still requires testing.</text></g>
</svg>
